#!OML:ASF E:\Style3\Style3.ASF
:FULLY-SPECIFIED
:DEGREES
3228
root -1.99586 17.3003 0.956961 -990.62 93.4846 -1014.54
lowerback 26.4449 -3.19463 -6.10129
upperback 7.85988 -4.92204 0.63809
thorax -5.23082 -2.14416 5.62018
lowerneck -4.3366 7.6636 0.425771
upperneck -13.4347 10.3804 -3.80805
head -3.35991 5.4841 -1.47116
rclavicle -3.18055e-015 7.95139e-015
rhumerus -3.76684 -56.4596 -4.16112
rradius 26.9728
rwrist -18.317
rhand -19.8161 9.94801
rfingers 7.12502
rthumb 6.51731 -19.9317
lclavicle -3.18055e-015 7.95139e-015
lhumerus 60.7247 -45.5584 -331.155
lradius 65.4264
lwrist 415.722
lhand -4.23723 27.8654
lfingers 7.12502
lthumb 21.5261 56.6892
rfemur -46.9018 0.276213 19.4196
rtibia 36.3868
rfoot -12.8059 -7.59678
rtoes -21.3578
lfemur -53.4611 5.39907 -11.7462
ltibia 46.6898
lfoot -4.24249 2.4705
ltoes -27.6097
3229
root -2.02009 17.2814 0.955576 -997.755 93.805 -1021.82
lowerback 26.6622 -3.10111 -6.05669
upperback 7.8311 -4.78629 0.801051
thorax -5.37502 -2.07039 5.75406
lowerneck -4.52953 7.52558 0.157422
upperneck -13.4297 10.2324 -3.54835
head -3.3556 5.41622 -1.33485
rclavicle 2.8625e-014 -1.59028e-014
rhumerus -1.73791 -56.2542 -5.63063
rradius 27.0229
rwrist -18.4335
rhand -19.3908 10.0472
rfingers 7.12502
rthumb 6.92795 -19.8194
lclavicle 2.8625e-014 -1.59028e-014
lhumerus 59.9243 -44.3707 -329.1
lradius 60.6838
lwrist 413.047
lhand -5.22574 27.7772
lfingers 7.12502
lthumb 20.5765 56.7067
rfemur -47.3119 -0.0605362 19.6174
rtibia 36.8063
rfoot -12.9013 -7.66632
rtoes -21.1346
lfemur -53.9412 5.26895 -11.6696
ltibia 46.8052
lfoot -4.28818 2.1769
ltoes -28.2805
3230
root -2.04344 17.2644 0.954493 -1003.9 94.139 -1028.14
lowerback 26.8639 -2.99292 -6.07186
upperback 7.74368 -4.65314 0.970708
thorax -5.57102 -1.99617 5.93184
lowerneck -4.67061 7.36899 -0.198569
upperneck -13.343 10.0688 -3.17245
head -3.34294 5.33785 -1.14724
rclavicle -4.29375e-014 1.51076e-014
rhumerus 0.366217 -55.9381 -7.13433
rradius 26.9844
rwrist -18.4141
rhand -18.9358 10.4003
rfingers 7.12502
rthumb 7.36709 -19.4514
lclavicle -4.29375e-014 1.51076e-014
lhumerus 58.817 -43.1349 -326.323
lradius 55.6803
lwrist 409.909
lhand -6.31876 27.3949
lfingers 7.12502
lthumb 19.5259 56.4344
rfemur -47.7531 -0.427669 19.7867
rtibia 37.2297
rfoot -13.0655 -7.74611
rtoes -21.1851
lfemur -54.4285 5.11509 -11.6177
ltibia 46.9259
lfoot -4.40207 1.86891
ltoes -28.4899
3231
root -2.06611 17.2406 0.952951 -1008.45 94.4911 -1032.83
lowerback 27.1179 -2.88963 -6.15588
upperback 7.6891 -4.54348 1.11501
thorax -5.74904 -1.93292 6.12949
lowerneck -4.85363 7.2342 -0.408323
upperneck -13.3385 9.93063 -2.86666
head -3.33865 5.27096 -1.00691
rclavicle 2.54444e-014 -3.57812e-014
rhumerus 2.73108 -55.5343 -8.91606
rradius 26.813
rwrist -18.2934
rhand -18.4301 11.0298
rfingers 7.12502
rthumb 7.85522 -18.8043
lclavicle 2.54444e-014 -3.57812e-014
lhumerus 57.2867 -41.5899 -322.84
lradius 50.5045
lwrist 406.332
lhand -6.92599 27.3213
lfingers 7.12502
lthumb 18.942 56.419
rfemur -48.2102 -0.85052 20.0213
rtibia 37.6812
rfoot -13.158 -7.86267
rtoes -21.6739
lfemur -54.8718 4.93377 -11.5339
ltibia 47.0495
lfoot -4.55478 1.70256
ltoes -28.4875
3232
root -2.08804 17.2123 0.951682 -1012.49 94.9252 -1037.02
lowerback 27.4217 -2.81826 -6.21429
upperback 7.64419 -4.46547 1.28769
thorax -5.93616 -1.88379 6.35651
lowerneck -4.93955 7.10836 -0.538936
upperneck -13.5151 9.79387 -2.69186
head -3.40345 5.20962 -0.932497
rclavicle 7.63333e-014 -1.98785e-014
rhumerus 5.12926 -54.9507 -10.756
rradius 26.6817
rwrist -18.162
rhand -17.7698 11.6348
rfingers 7.12502
rthumb 8.49252 -18.1744
lclavicle 7.63333e-014 -1.98785e-014
lhumerus 55.5105 -39.553 -318.536
lradius 44.9969
lwrist 401.892
lhand -6.92348 27.2955
lfingers 7.12502
lthumb 18.9444 56.3929
rfemur -48.6806 -1.3186 20.3174
rtibia 38.1581
rfoot -13.2201 -7.97398
rtoes -22.0935
lfemur -55.3333 4.6858 -11.386
ltibia 47.1679
lfoot -4.73819 1.60149
ltoes -28.4597
3233
root -2.11203 17.1836 0.950054 -1015.84 95.4744 -1040.51
lowerback 27.7405 -2.76812 -6.16918
upperback 7.61649 -4.38361 1.46891
thorax -6.12088 -1.83247 6.53313
lowerneck -4.92562 6.96351 -0.569741
upperneck -13.7494 9.62063 -2.59475
head -3.4972 5.12856 -0.904708
rclavicle -1.74931e-014 1.35174e-014
rhumerus 7.16636 -53.8149 -12.2786
rradius 26.711
rwrist -18.5871
rhand -17.4616 11.705
rfingers 7.12502
rthumb 8.7899 -18.0919
lclavicle -1.74931e-014 1.35174e-014
lhumerus 53.6755 -36.9217 -313.449
lradius 39.1741
lwrist 396.685
lhand -7.20681 26.6555
lfingers 7.12502
lthumb 18.6719 55.7794
rfemur -49.1501 -1.76622 20.6651
rtibia 38.6656
rfoot -13.3338 -8.088
rtoes -22.4939
lfemur -55.7666 4.37456 -11.1197
ltibia 47.2576
lfoot -4.96485 1.47057
ltoes -27.8543
